<?xml version="1.0" encoding="utf-8"?>
<!-- Generator: Adobe Illustrator 16.0.0, SVG Export Plug-In . SVG Version: 6.00 Build 0)  -->
<!DOCTYPE svg PUBLIC "-//W3C//DTD SVG 1.1//EN" "http://www.w3.org/Graphics/SVG/1.1/DTD/svg11.dtd">
<svg version="1.1" id="Layer_1" xmlns="http://www.w3.org/2000/svg" xmlns:xlink="http://www.w3.org/1999/xlink" x="0px" y="0px"
	 width="316.585px" height="318px" viewBox="0 0 316.585 318" enable-background="new 0 0 316.585 318" xml:space="preserve">
<g>
	<polygon fill="#FF9A3E" points="138.202,182.481 117.902,234 125.411,234 141.96,191.992 145.719,201.502 132.916,234 140.421,234 
		149.478,211.012 153.235,220.521 147.926,234 155.433,234 156.995,229.932 191.841,318 269.191,318 269.108,318 270.334,318 
		296.349,252 288.843,252 265.938,310.111 262.148,300.684 281.338,252 273.832,252 258.36,291.259 254.569,281.83 266.326,252 
		258.821,252 250.78,272.402 246.99,262.975 251.315,252 243.81,252 243.2,253.545 239.41,244.117 239.585,243.674 239.585,224.633 
		235.621,234.689 231.831,225.262 239.585,205.588 239.585,186.544 228.042,215.834 224.251,206.404 239.585,167.498 
		239.585,148.43 220.46,196.974 216.67,187.543 239.585,129.377 239.585,110.329 212.88,178.115 209.089,168.684 239.585,91.275 
		239.585,88 233.37,88 205.299,159.255 201.509,149.826 225.866,88 218.36,88 197.719,140.396 193.929,130.969 210.856,88 
		203.35,88 190.138,121.537 186.348,112.109 195.846,88 188.34,88 182.558,102.678 178.767,93.25 180.835,88 176.657,88 141.341,0 
		66.14,0 85.839,49.916 0,268 6.92,268 89.351,58.874 93.108,68.381 14.425,268 21.931,268 96.866,77.891 100.624,87.397 
		29.437,268 36.942,268 104.382,96.908 108.14,106.413 44.447,268 51.954,268 111.897,115.924 115.655,125.431 59.459,268 
		66.965,268 119.413,134.939 	"/>
	<polyline fill="#FF9A3E" points="126.14,175 102.884,234 110.397,234 133.645,175 	"/>
	<polygon fill="#FF9A3E" points="303.854,252 277.839,318 285.355,318 311.36,252 	"/>
	<polygon fill="#FF9A3E" points="292.86,318 300.366,318 316.585,276.837 316.585,257.787 	"/>
	<polygon fill="#FF9A3E" points="315.376,318 316.585,314.934 316.585,295.882 307.87,318 	"/>
	<polygon fill="#FF9A3E" points="111.128,175 87.872,234 95.378,234 118.634,175 	"/>
</g>
</svg>
