<?xml version="1.0" encoding="utf-8"?>
<!-- Generator: Adobe Illustrator 17.1.0, SVG Export Plug-In . SVG Version: 6.00 Build 0)  -->
<!DOCTYPE svg PUBLIC "-//W3C//DTD SVG 1.1//EN" "http://www.w3.org/Graphics/SVG/1.1/DTD/svg11.dtd">
<svg version="1.1" id="Layer_1" xmlns="http://www.w3.org/2000/svg" xmlns:xlink="http://www.w3.org/1999/xlink" x="0px" y="0px"
	 viewBox="0 0 363.1 317.2" enable-background="new 0 0 363.1 317.2" xml:space="preserve">
<g>
	<path fill="#FCD7D2" d="M363.1,201.1c0,16,0,32,0,48c-1.3-0.3-2,0.5-2.3,1.5c-0.5,1.4-1.6,0.8-2.4,0.8c-0.9-0.1-1-0.8-1-1.6
		c0-0.8,0.1-1.6,0-2.4c-0.2-3.3-3.7-5.1-6.5-3.4c-0.3,0.2-0.9,0.5-0.5,0.9c0.8,1-0.1,0.9-0.6,1.2c-1.9,0.9-3.1,2.4-3.6,4.5
		c-0.7,2.6,1,4.6,3.8,4.6c2.7-0.1,3.6,1.3,2.6,3.9c-0.3,0.6-0.4,1.2-0.4,1.8c-0.1,2.2-1,2.8-3.2,2.4c-1.9-0.3-3.8-0.4-5.6,0
		c0.2,2,0.2,2-1.2,2.3c-0.1-2.9-0.2-3-3-4.5c-0.2-0.1-0.3-0.4-0.4-0.6c-0.9-2.3-3-2.6-5-3c-1-0.2-1.6,0.3-1.7,1.4
		c-0.1,0.9,0.3,1.8-0.2,2.8c-1.1-0.6-2-1.2-3-1.7c0.4-0.9,1.2-1.6,0.6-2.5c-0.9-1.3-0.6-2.5-0.1-3.8c0.4-0.9,0.2-2.1,0.7-3
		c0.2-0.4,0-0.8-0.3-1.1c-1.1-0.7-1.4-2.1-2.2-3.1c-1.2-1.4-2.4-2.8-4.3-3.2c-0.7-0.2-1.4-0.2-2.1,0.1c-0.7,0.3-1,0.7-0.7,1.5
		c0.4,1,0.8,2.1,1,3.2c0.2,0.7,0.5,1.6-0.5,2.1c-0.9,0.5-2.1,0.8-2.8,1.6c-0.8,0.9-0.3,2.3-0.8,3.4c-0.1,0.2-0.1,0.5-0.2,0.7
		c-0.2,0-0.5,0-0.2,0.3c0.1-0.1,0.1-0.2,0.2-0.3c1.8-0.3,3.8,0.6,5.5-0.8c0.2-0.2,0.6,0.1,0.7,0.4c0.4,0.9,0.3,1.6-0.1,2.5
		c-0.7,1.3-0.3,2.2,0.7,2.2c2.1,0.1,3.8,1.2,5.6,2c2.4,1.1,4.8,1.6,7.3,0.6c0.7-0.3,1,0,1.3,0.6c0.8,1.6,2.2,2.1,3.9,2.2
		c-0.2,1.4-1.4,1.2-2.4,1.6c-0.9,0.3-1-0.6-1.4-0.9c-0.9-0.6-1.5-2.1-3-0.8c-0.3,0.2-0.6-0.2-0.7-0.4c-0.8-0.9-1.9-0.9-2.9-0.7
		c-0.8,0.1-1.6,0.3-2.3,0.6c-1.2,0.4-2.3,0.7-3.7,0.4c-1.9-0.4-3.3,0.7-3.8,2.7c-0.2,0.7-0.5,1.4-0.4,2.1c0.1,0.6-0.3,1.1-0.8,1.3
		c-1.2,0.6-2.4,1.3-3.5,1.9c-0.7-0.5-0.4-1.7-1.5-1.8c-1.1-0.1-3,0.6-3.6,1.6c-0.6,1.1-0.4,2.8,0.6,3.7c0.9,0.9,2,1.3,3.2,1.4
		c1.8,0.1,3.6-0.1,5.4-0.5c0,0.4,0.1,0.7,0,0.9c-0.5,2.3,0.2,4.1,2.4,5.2c1,0.5,1.4,1.4,2,2.5c-1.7,0-2.1,1.6-3.4,1.9
		c-1.9-3.3-3.4-4.1-6.3-3.3c-1.8,0.5-1.8,0.5-2.1-1.3c-0.4-2.4-1.3-4.3-3.6-5.3c-0.8-0.4-0.7-0.8-0.5-1.5c0.7-2.4,0.2-4.4-1.8-6.1
		c-0.3-0.2-0.7-0.5-0.6-0.9c1.7-0.7,2-1.1,1.5-2.8c-0.3-0.9-0.3-1.7-0.3-2.6c0-0.8-0.3-1.6-0.9-2.2c-0.6-0.6-0.9,0.5-1.4,0.4
		c-0.3-0.1-0.6-0.2-0.9-0.2c-1.3-0.2-2.7-0.3-4-0.2c-1.8,0.2-1.9,0.2-2.3-1.6c-0.4-1.8-1.3-3.1-3-3.7c-0.5-0.2-1-0.3-1.1-0.8
		c-0.2-2.5-2.3-4.3-2.4-6.9c-0.1-1.3-0.3-2.7-0.2-4c0-0.6-0.1-1.2-0.9-1.2c-2,0-4-0.5-6,0c-1.4,0.3-2.4,1.1-2.9,2.5
		c-0.8,2.3-0.1,4.2,1.5,5.9c1.9,1.9,4,2.9,6.7,2.1c0.6-0.2,1.1-0.8,1.8-0.7c0.4,1.1-0.8,1.4-0.7,2.3c0.1,2,0.4,4,0.5,6
		c0,0.6,0.5,1,1.1,1c0.6,0,0.7-0.5,0.8-1c0.4-1.1,0.4-2.2,0.4-3.3c0-0.3,0-0.7,0.4-0.8c0.5-0.2,0.8,0.1,1,0.4
		c0.7,1.1,1.5,2.3,2.2,3.4c0.2,0.3,0.4,0.8,0.2,1.1c-1.2,2.2,0.6,3.9,0.7,6.1c0.9-2,2.2-0.7,3.2-0.6c1.2,0.2,1.5,1,1.4,2.1
		c-0.1,1.6-1.4,2.4-2.1,3.6c-0.6-0.5-1.1-0.9-1.6-1.3c-2-1.3-3.9-0.9-5.3,1.1c-0.5,0.7-1,1.2-1.4,1.9c-0.7,1.3-1.8,1.9-3.3,2.1
		c-0.6,0-1.2,0-1.5,0.5c-1.1,1.7-3.3,2.4-3.3,4.8c-1.7-0.5-2.7-2.1-4.6-1.6c-1.6-1.8-3.1-3.8-4.2-6c1.1,0,2.4,0.3,3.2-0.5
		c1.4-1.3,3.2-1.6,4.7-2.7c0.4,0.8,0.6,1.5,1,2.1c0.7,1.2,2.1,1.7,3.3,1.4c1.3-0.3,2.1-1.3,2.1-2.6c0-1.2-0.6-1.7-1.9-2.2
		c-0.6-0.2-1.5,0.1-1.6-1.1c1.1-0.4,2,0.3,3,0.2c2.6-0.1,3.7-1,4.1-3.6c0.1-0.4,0.3-0.7,0.4-1.2c-2.2,0-4.4,0-6.5,0
		c-0.9,0-2-0.3-2.8,0.2c-1,0.6-0.5,1.7-0.7,2.6c0,0.1,0,0.2,0,0.2c-0.1,0.8-0.7,0.7-1.3,0.7c-0.5,0-1-0.2-1-0.8c0-0.6,0-1.1,0-1.7
		c-0.2-1.9-1.3-2.8-3.2-2.9c-1.4,0-2.6,0.6-3.8,1.2c-0.7,0.4-1.2,1.2-2.1,0.8c0.7-3.2,0.6-3.4-2.3-4.2c-0.9-0.3-1.1-0.7-1.1-1.5
		c0-1,0.2-2.1-0.3-3.1c-0.3-0.5-0.8-1,0-1.6c0.8-0.6,1.4-0.4,2.1,0.2c0.8,0.8,1.9,1.3,3,1.4c1.3,0.1,2.4,0.4,3.3,1.5
		c0.4,0.4,1.2,0.7,1.3,0c0.2-1.5,1.5-1.3,2.5-1.7c-0.4-1.5-0.9-2.8-1.8-4c-0.2,0.8-0.2,1.5-0.3,2.2c-0.1,0.8,0.1,1.7-1.1,1.8
		c-1.1,0.1-1.9,0-2.3-1.2c-0.4-1-0.9-2.1-1.3-3.1c-0.5-1.2-1.7-1.6-2.4-2.5c-0.5-0.7,0.3-2.2-0.1-3.4c-0.3-1-1.3-1.6-1.6-2.8
		c1.5-0.1,2.8-0.5,4.1-1c0.4,1,0.2,1.8,0.9,2.5c0.9-0.9,1.5-2,2.2-3.1c1.2-1.7,1.2-1.7,3.1-1.2c1.1,0.2,2.2,0.5,3.3,0.6
		c0.6,0.1,1.2,0.1,1.4-0.6c0.2-0.6-0.1-1.1-0.4-1.5c-0.6-0.8-1.6-1-2.5-1.2c-1.9-0.2-3.6,0.5-5.4,1l-0.1-0.1
		c-0.1-2.1-0.2-4.2-2.8-4.8c-0.5-0.1-0.9-0.7-1.4-1c-0.5-0.3-1-0.8-1.7-0.6c-0.1,0.6-0.3,1.2-0.4,1.8c-0.3-1-0.4-1.9,0.2-2.9
		c-2.9,0-5.7,0-8.5,0c-1.4,0-1.6,0.5-1.2,1.9c0.5,1.5,1.7,2.1,3,2.4c0.7,0.2,1.3,0.4,1.3,1.2c0,1.8,0.5,3.5,1.1,5.5
		c-1.1-0.1-1.9-0.5-2.8-0.4c-1.8,0.1-2.1,0.5-1.6,2.2c0.8,2.7,0.8,2.7-1.6,4.1c-0.8,0.4-1.4,0.6-2.2,0.1c-0.5-0.3-1-0.6-1.6-0.4
		c-1.3-1.5-2.7-3-3.4-5c1-0.7,1.6,0,2.3,0.5c1.4,0.9,2.5,2.4,4.6,2.8c-1.3-5.6-2.5-10.9-3.6-16.2c-0.2,0.7-0.3,1.3-0.3,1.9
		c-0.3,2.8-0.5,5.5-1.4,8.2c-0.4,1.2-1,1.9-2.4,1.8c-3.7-4.7-7-9.6-10.4-14.5c3.4,0.1,6-1.3,7.7-4.2c0.5-0.9,1-1.1,1.8-0.4
		c0.5,0.4,1,0.8,1.5,1.2c1.5,1,2.8,2.6,4.9,3.5c-1.1-4.6-2.8-8.5-6.1-11.5c-2-1.8-4.3-1.9-6.7-0.7c-3.4,1.8-5.5,4.5-5.7,8.5
		c-0.3-0.3-0.6-0.6-0.8-0.9c-19-26.8-38-53.5-57-80.3c-0.3-0.4-0.6-0.7-0.5-1.5c6.8-3.6,13.8-7.2,20.7-10.8c2,2.9,5,4.7,7.4,7.1
		c3.4,3.3,7.1,6.3,10.7,9.5c2.7,2.4,5.4,4.7,8.1,7c3.5,3,7.1,5.9,10.6,8.8c3.9,3.2,7.7,6.4,11.6,9.5c4.7,3.7,9.4,7.3,14.3,10.7
		c7.5,5.2,15,10.3,23.4,13.9c3.4,1.5,6.9,2.5,10.6,2.7c4.4,0.2,8.5-1.1,12.2-3.4c5.8-3.7,9.6-9.2,13.3-14.8
		c3.8-5.7,6.9-11.9,11.2-17.2c2.8-3.4,5.9-5.8,10.6-5.4c0.3,0,0.6,0,1,0c0.2,0.4,0.4,0.8,0.6,1.3c3.5,9.3,7,18.5,10.5,27.8
		C359.8,192.6,361.5,196.9,363.1,201.1z M311.7,264c0,0.2,0.1,0.3,0.2,0.1C311.9,264.1,311.8,264,311.7,264
		c-0.5-0.9-1.1-1.7-2.1-2.1C309.9,263.1,310.3,264.1,311.7,264z M339.7,234.6c-0.1-0.9,0-1.8-0.2-2.6c-0.6-2.3-1.9-4-4.3-4.7
		c-2.1-0.6-3.7,0.4-5.1,1.8c-2,2-2,2.5,0.3,4.2c0.3,0.2,0.5,0.4,0.8,0.6c1.9,1.4,3.7,2.7,3.7,5.4c0,0.8,0.4,1.6,1.4,1.7
		c0.9,0.1,1.5-0.5,1.9-1.2C339.3,238.2,339.7,236.5,339.7,234.6z M310.1,246.1c0.2,0.5,0.3,1,0.6,1.5c1.2,2.5,3.9,2.7,5.5,0.4
		c0.9-1.3,1.2-2.8,1.2-4.3c0-3.4-1.9-5.4-4.9-5.5c-0.6,0-1.1-0.1-1.7,0c-1.2,0-1.5,0.5-1.3,1.7c0.1,0.9,0.7,1.6,1.2,2.3
		c1,1.1,0.9,1.5-0.3,2.5c-0.7,0.5-1.4,1.1-2,1.7c-0.2,0.1-0.1,0.3,0,0.4C309.1,246.8,309.5,245.9,310.1,246.1z M350.7,210.1
		c-0.6,0-1.3,0-2,0.2c-1.8,0.3-2.2,0.9-1.9,2.6c0.2,1.4,0.6,1.6,2.4,1.7c1.1,0,2.3-0.3,2.5,1.4c0.1,0.7,0.7,0.5,1.1,0.2
		c0.3-0.2,0.6-0.6,0.8-0.9c0.8-1.3,1.3-2.6,0.6-4.1C353.4,209.8,352,210.2,350.7,210.1z M268.4,216.9c1.5,0,3.2-0.9,3.7-2.2
		c0.5-1.2,0-2.7-1.2-3.8c-1-0.9-1.9-0.9-2.9,0.1c-0.9,1-1.2,2.2-1.5,3.4C266,216.2,266.6,216.9,268.4,216.9z M230.9,178.2
		c-0.2-1.1-1.5-1.2-1.5-1.7c0.1-1.7-1.1-1.5-2-1.6c-1.4-0.2-2.4,0.5-2.6,1.5c-0.2,1.2,0.5,2.2,1.9,2.6
		C228.3,179.7,229.5,179,230.9,178.2z M231.1,189.6c-1.1,2.7-3.2,4.7-2.2,7.7c0.9-0.9,0.7-2.3,1.5-3.1c1.7,0.8,2.6,0.5,3.2-1.3
		c0.5-1.3,0.3-1.8-1.1-1.9C231.6,191,231.2,190.8,231.1,189.6z M303.1,259.5c1.9,0.2,3.5,0.5,4.7-1c0.5-0.6,0.8-1.3,0.4-2
		c-0.4-0.7-1.2-0.7-1.9-0.4C304.6,256.5,303.7,257.7,303.1,259.5z M318.1,263.6c0-0.7-0.5-0.9-1.1-0.9c-1.8-0.2-2.8,1.4-4.1,2.2
		c-0.2,0.1,0,0.6,0.3,0.8c0.2,0.1,0.4,0.2,0.6,0.3c0.7-1.7,2.4-0.7,3.5-1.3C317.7,264.4,318.1,264.2,318.1,263.6z M264.5,197.7
		c1.3-0.1,2.3-1.2,2.1-2.4c-0.3-1.8-1.3,0.2-2-0.3c-0.1-0.1-0.3,0-0.5,0c-0.9,0.1-1.3,0.6-1.2,1.4
		C263,197.3,263.7,197.8,264.5,197.7z"/>
	<path fill="#A48483" d="M341.9,265.4c1.4-0.3,1.4-0.3,1.2-2.3c1.9-0.4,3.8-0.3,5.6,0c2.2,0.4,3.1-0.2,3.2-2.4
		c0-0.6,0.2-1.2,0.4-1.8c1.1-2.6,0.1-4-2.6-3.9c-2.8,0.1-4.4-1.9-3.8-4.6c0.5-2.1,1.7-3.5,3.6-4.5c0.5-0.2,1.4-0.2,0.6-1.2
		c-0.3-0.4,0.2-0.7,0.5-0.9c2.8-1.7,6.3,0.1,6.5,3.4c0.1,0.8,0,1.6,0,2.4c0,0.8,0.1,1.5,1,1.6c0.8,0.1,1.9,0.7,2.4-0.8
		c0.4-1.1,1-1.8,2.3-1.5c0,4.2,0,8.3,0,12.5c-0.6,0-1.3,0-1.9,0c-0.6,0-1.1,0.2-1.3,0.8c-0.2,0.7-0.4,1.4,0.3,2
		c0.3,0.3,0.6,0.5,0.9,0.8c0.7,0.7,1,3.3,0.5,4.1c-0.2,0.3-0.4,0.5-0.8,0.5c-3.4,0.1-6.9,0.5-9.7-2.2c-0.6-0.5-1-0.6-1.7-0.2
		c-0.5,0.3-1.3,0.5-1.6,1c-1.3,2.1-3.4,2.8-5.4,3.6c-1.2,0.5-1.6,1.2-1.4,2.4c0.1,0.4,0,0.8,0,1.2c-0.3-0.1-0.6-0.2-0.9-0.2
		c-0.4-0.1-0.8-0.3-0.9,0.2c-0.1,0.4,0.2,0.8,0.6,0.9c0.8,0.2,1.2-0.1,1.2-0.9c1.6-0.1,3.1,0.2,4.7-0.8c0.7-0.4,2.1-0.7,2.4,0.5
		c0.3,1.2,1,1.2,1.9,1.2c2.4-0.2,3.8,1,4.5,3.1c0.4,1,0.6,2.2,1,3.2c0.2,0.7,0.2,1.6,0.9,1.9c1.5,0.5,1.4,1.8,1.4,3
		c-1,0.9-2.3,1.3-3.5,1.9c-0.6-0.3-1.1-0.9-1.8-1c-0.1-0.2-0.1-0.5-0.2-0.7c-0.2-0.5-0.3-1.2-1-1.1c-0.8,0.1-1.5,0.5-2,1.1
		c-0.2,0.3,0,0.5,0.3,0.7c1,0.8,1.9-0.3,2.9-0.1c0.2,0.5,0.3,1,0.5,1.6c-0.3,0.6-0.9,0.8-1.5,1.1c-3.3,1.7-6.6,3.5-9.9,5.2
		c-1.5,0.8-2.9,2-4.6,2.3c-2.1-0.6-2.1-0.6-2.2,1.3c-0.1,0.1-0.3,0.1-0.4,0.1c-1.9-1.2-4.1,0-6.4-0.5c2-1.8,0.7-3.6,0.7-5.9
		c-1.3,1.5-1.1,3.5-3.1,3.9c0.1-0.6,0.1-1.1,0.2-1.5c0.4-2,0.4-2-1.7-2c-2.6,0-2.6,0-2.8,2.7c-0.1,0.6-0.7,1.2,0.2,1.7
		c0.6,0.3,1.2,0.7,2,0.7c0.9-0.1,0.7-0.7,0.6-1.2c0.1-0.1,0.1-0.1,0.2-0.2c1.1,0.6,2.1,1.6,2.8,2.4c0.6,0.8,0.1,2.5,0.1,3.8
		c-0.7,0.9-1.8,1.2-2.8,1.6c-1-0.6-1.6-1.5-2.5-2.5c-0.8,2.2-2.9,1.8-4.7,2.2c1.6,1.5,1.6,1.5,1.8,3.1c-2.8,2.1-5.9,3.6-9.1,4.9
		c-1.5-0.7-2.8-0.4-4,0.6c-0.6,0.5-1.1,0.9-1.7,1.3c-1.6-1.6-2.5-3.6-3.9-5.3c-1.9-2.4-3.5-4.9-5.2-7.4c-2-2.8-4.1-5.5-5.8-8.4
		c0.5-0.9,0.9-1.8,1.4-2.6c-0.7-0.8-2-0.8-2.3-1.7c-0.6-1.5-1.6-1.1-2.6-0.9c-2.2-1.9-3.5-4.6-5.1-7c1.8-0.5,2.9,1.1,4.6,1.6
		c0-2.4,2.3-3.1,3.3-4.8c0.3-0.5,0.9-0.5,1.5-0.5c1.4-0.1,2.5-0.7,3.3-2.1c0.4-0.7,0.9-1.3,1.4-1.9c1.4-1.9,3.3-2.3,5.3-1.1
		c0.5,0.3,1,0.8,1.6,1.3c0.8-1.2,2.1-2,2.1-3.6c0-1.1-0.2-1.9-1.4-2.1c-1.1-0.2-2.3-1.5-3.2,0.6c-0.1-2.1-1.9-3.9-0.7-6.1
		c0.2-0.4,0.1-0.8-0.2-1.1c-0.7-1.2-1.5-2.3-2.2-3.4c-0.2-0.4-0.5-0.6-1-0.4c-0.4,0.1-0.4,0.5-0.4,0.8c-0.1,1.1-0.1,2.2-0.4,3.3
		c-0.2,0.5-0.2,1-0.8,1c-0.6,0-1.1-0.4-1.1-1c-0.1-2-0.4-4-0.5-6c0-0.9,1.2-1.2,0.7-2.3c-0.7-0.1-1.2,0.5-1.8,0.7
		c-2.7,0.7-4.8-0.2-6.7-2.1c-1.7-1.7-2.3-3.6-1.5-5.9c0.5-1.4,1.5-2.2,2.9-2.5c2-0.4,4,0,6,0c0.7,0,0.9,0.5,0.9,1.2
		c-0.1,1.4,0.2,2.7,0.2,4c0.1,2.6,2.2,4.4,2.4,6.9c0,0.5,0.6,0.7,1.1,0.8c1.8,0.6,2.7,1.9,3,3.7c0.3,1.7,0.4,1.7,2.3,1.6
		c1.4-0.1,2.7,0,4,0.2c0.3,0,0.6,0.2,0.9,0.2c0.5,0.1,0.8-1,1.4-0.4c0.6,0.6,0.8,1.3,0.9,2.2c0,0.9,0.1,1.7,0.3,2.6
		c0.5,1.6,0.2,2-1.5,2.8c0,0.5,0.4,0.7,0.6,0.9c1.9,1.6,2.4,3.7,1.8,6.1c-0.2,0.7-0.4,1.2,0.5,1.5c2.3,1,3.3,2.9,3.6,5.3
		c0.3,1.8,0.3,1.8,2.1,1.3c2.9-0.8,4.4,0,6.3,3.3c1.3-0.3,1.8-1.9,3.4-1.9c-0.6-1.1-1-2-2-2.5c-2.2-1.1-2.8-2.9-2.4-5.2
		c0-0.2,0-0.5,0-0.9c-1.8,0.4-3.6,0.6-5.4,0.5c-1.2-0.1-2.3-0.5-3.2-1.4c-1-0.9-1.2-2.6-0.6-3.7c0.5-1,2.5-1.7,3.6-1.6
		c1.1,0.1,0.8,1.3,1.5,1.8c1.2-0.6,2.4-1.3,3.5-1.9c0.5-0.3,0.9-0.7,0.8-1.3c-0.1-0.7,0.2-1.4,0.4-2.1c0.5-2,1.9-3.1,3.8-2.7
		c1.4,0.3,2.5,0,3.7-0.4c0.8-0.3,1.5-0.5,2.3-0.6c1-0.1,2.1-0.2,2.9,0.7c0.2,0.2,0.5,0.7,0.7,0.4c1.4-1.3,2.1,0.2,3,0.8
		c0.5,0.3,0.5,1.3,1.4,0.9C340.5,266.7,341.7,266.8,341.9,265.4L341.9,265.4z M302.1,291.8c0,0.2,0.1,0.4,0.1,0.6
		c0.1-0.1,0.2-0.1,0.2-0.2C302.5,292,302.3,291.9,302.1,291.8c0-3.2-1.9-4.9-4.9-4.1c-1.1,0.3-2,0.8-2.2,1.9
		c-0.1,0.7,1.7,1.6,2.8,1.2C299.6,290,300.8,290.8,302.1,291.8z M322.8,274.6c0.7,0.2,1.1-0.3,1.6-0.5c1.3-0.7,2.6-0.6,3.9,0.1
		c0.6,0.3,1.3,0.7,1.8,1.1c1.2,0.9,2.2,0.9,3.5,0.1c1.8-1.1,2.3-0.8,2.5,1.3c0,0.2,0.1,0.5,0,0.7c-0.1,1,0.4,1.5,1.2,2.1
		c2.3,2,4.2,4.2,3.7,7.6c-0.1,0.5,0.1,1,0.6,1.1c1,0.1,3.1-1.9,3.1-2.9c-0.1-1.6-0.3-3.2,0.2-4.7c0.1-0.3,0.1-0.7-0.2-0.9
		c-1.1-0.7-1.1-2-1.4-3c-1.1,0.1-1.7,0.8-2.4,1.3c-0.3,0.2-0.8,0.6-1,0.2c-0.5-0.9-1.2-1.3-2.3-1.3c-0.5,0-0.6-0.5-0.5-0.9
		c0.1-0.4,0.3-0.7,0.5-1.1c0.9-1.6-0.3-3.3,0-4.9c0.2-0.8-1.2-0.8-1.7-1.4c-1.2-1.3-2.4,0-3.5,0.3c-1.1,0.3-0.3,1.2-0.3,1.8
		c0.1,1.1,0.2,2-1.1,2.5c-2,0.8-3.5-0.1-3.7-2.3c-0.1-0.8,0.4-1.7-0.3-2.4c-0.8,0.3-0.7,1-0.9,1.4c-0.4,0.8-0.9,1.2-1.8,1.4
		c-1.8,0.3-1.8,0.3-1.7,2.1C322.8,273.8,322.8,274.2,322.8,274.6z M306.3,299c-1-1.3-2.4-1.3-3.8-1.4c-2-0.1-2,0-2.3,2.2
		C302.3,300.2,304.3,300.5,306.3,299z M306.3,294.6c-1.3-0.8-2.7-0.5-4.1-0.5c-0.8,0-1.5,0.7-1.9,1.6c-0.2,0.3-0.1,0.8,0.1,1.1
		c0.3,0.4,0.7,0.2,1.1,0.1c1.1-0.3,2.1-0.6,3.2-0.9C305.4,295.7,306.1,295.5,306.3,294.6z M311,299.1c-0.4,0.2-1.2-0.4-1.5,0.5
		c-0.2,0.7,0.5,1.1,1,1.5c0.2,0.2,0.5,0.4,0.8,0.4c0.6,0.2,1.4,0.7,1.8-0.2c0.3-0.7-0.5-2-1.3-2.2
		C311.6,299.1,311.3,299.1,311,299.1z M308.7,288.5c-0.3,0.1-0.7,0.2-0.7,0.8c0,0.6,0.3,1.2,0.9,1.2c0.7,0.1,0.8-0.6,0.9-1.1
		C309.8,288.8,309.5,288.6,308.7,288.5z M311,284.3c0.2-0.8,0.4-1.5,0.6-2.1c0.1-0.4-0.2-0.8-0.6-0.8c-0.5,0-0.6,0.4-0.5,0.8
		C310.5,282.9,310.6,283.6,311,284.3z M311.4,293.6c-0.9-0.4-1.8-0.1-2.4-0.8c-0.2-0.3-0.5-0.4-0.8,0c-0.1,0.1-0.2,0.3-0.2,0.4
		c0,0.5,0.5,0.6,0.8,0.5C309.7,293.7,310.4,293.7,311.4,293.6z M317.4,301.1c0.8,0.2,1.2,1,1.9,0.3c0.2-0.2,0.3-0.9,0-1.1
		C318.5,299.8,318.1,300.5,317.4,301.1z"/>
	<path fill="#687887" d="M324.3,305.3c1-0.3,2.1-0.7,2.8-1.6c2.7-0.8,5-2.2,7.3-3.8c0.1,0,0.3,0,0.4-0.1c0.8-0.4,1.6-0.6,2.2-1.3
		c1.8-0.3,3.1-1.5,4.6-2.3c3.3-1.7,6.6-3.4,9.9-5.2c0.6-0.3,1.2-0.5,1.5-1.1c0.5-0.1,1,0,1.3-0.6c1.2-0.5,2.5-1,3.5-1.9
		c1.9-0.4,3.4-2,5.3-2.5c0,0.5,0,1,0,1.4c-3.8,1.5-7.2,3.7-10.8,5.6c-15.3,8.1-30.6,16.3-45.9,24.4c-2,1-2,1-3.3-0.9
		c-27.9-39.2-55.7-78.5-83.6-117.7c-12.9-18.1-25.7-36.2-38.6-54.4c-0.4-0.5-0.7-1-1.1-1.6c-0.4-0.5,0-0.9,0.4-1.2
		c7.1-3.5,14-7.3,20.9-11.1c1.7-0.9,3.4-1.7,5.1-2.6c33.2-17.6,66.3-35.2,99.5-52.9c0.6-0.3,1.4-0.4,1.6-1.2c-0.7-0.3-1.3,0-1.9,0.1
		c-12.4,2.6-24.7,5.2-37.1,7.7c-22.6,4.7-45.2,9.5-67.8,14.2c-8.8,1.8-17.5,3.7-26.2,5.6c-3.3,0.4-3.3,0.4-3.4-3
		c0-0.2,0-0.3-0.1-0.5c-0.1-4.2-0.1-8.5-0.2-12.7c0-0.7,0.1-1.4,0-2.2c-0.1-1.2,0.3-1.7,1.5-2c1.9-0.4,1.9-0.5,1.9-2.5
		c0.4-21,7.7-39.2,22.2-54.3c7.3-7.6,15.9-13.3,25.6-17.4c1.2-0.5,2.1-0.7,2.9,0.6c0.6,0.9,1.7,1.2,2.7,1.4c6.9,1.4,13.2,0,18.9-4
		c0.9-0.7,1.8-1.5,2-2.6c0.2-1.5,1.1-1.4,2.2-1.5c8.9-0.1,17.5,1.1,25.9,4c21.6,7.5,37.1,21.7,46.6,42.5c0.9,1.9,0.9,2,2.8,1.6
		c1.3-0.3,1.9,0.1,2.3,1.3c2.1,5.3,4.3,10.5,6.5,15.7c0.7,1.6,0.6,1.7-1.1,2c-5.4,1.1-10.8,2.3-16.2,3.4c-0.6,0.1-1.3,0.2-1.8,0.6
		c-0.1,0.8,0.4,1.5,0.7,2.2c15.2,40.4,30.3,80.8,45.5,121.1c0.3,0.9,0.4,2,1.2,2.7c0,1.3,0,2.6,0,3.8c-1.6-4.2-3.2-8.5-4.8-12.7
		c-3.5-9.3-7-18.5-10.5-27.8c-0.2-0.4-0.4-0.9-0.6-1.3c-0.1-0.3-0.1-0.6-0.2-0.9c-10.6-28.3-21.2-56.5-31.9-84.8
		c-0.9-2.5-0.6-2.7-3.4-1.2c-29.4,15.6-58.8,31.3-88.2,46.9c-7.1,3.8-14.2,7.6-21.3,11.4c-6.9,3.6-13.9,7.2-20.7,10.8
		c-0.1,0.7,0.3,1.1,0.5,1.5c19,26.8,38,53.5,57,80.3c0.2,0.3,0.5,0.6,0.8,0.9c0.7,1.3,1.5,2.5,2.5,3.6c3.4,4.9,6.7,9.8,10.4,14.5
		c0.2,0.4,0.5,0.8,0.9,1c0.6,2,2,3.4,3.4,5c0.8,1.5,1.6,3,2.9,4.2c1.4,2.5,3.1,4.7,4.8,6.9c1.5,2.7,3.4,5.1,5.3,7.5
		c0.6,0.8,0.9,1.9,1.9,2.3c1,2.4,2.7,4.4,4.4,6.3c1.2,2.2,2.6,4.1,4.2,6c1.6,2.4,2.9,5,5.1,7c0.8,2.1,2.2,3.7,3.6,5.3
		c1.7,3,3.8,5.6,5.8,8.4c1.7,2.5,3.4,5,5.2,7.4c1.4,1.7,2.3,3.8,3.9,5.3c0.3,1,0.8,1,1.6,0.6c1.4-0.8,2.7-1.6,4.1-2.5
		c3.2-1.3,6.3-2.8,9.1-4.9C321,307.6,322.7,306.6,324.3,305.3z M171.9,90.2c0.1,0,0.2,0,0.2,0c0,2.6,0,5.3,0,7.9
		c0,1.1,0.5,1.4,1.5,1.2c0.3-0.1,0.6-0.1,0.9-0.2c17.4-3.6,34.7-7.2,52.1-10.9c25.7-5.4,51.5-10.8,77.2-16.2c3.7-0.8,7.3-1.7,11-2.4
		c5.8-1.1,11.6-2.4,17.4-3.5c1.1-0.2,1.3-0.7,0.9-1.7c-2-4.6-3.9-9.3-5.8-13.9c-0.4-0.9-0.8-1.2-1.8-1c-2.3,0.4-2.3,0.3-3.2-1.8
		c-9.9-22.2-26.6-36.7-49.9-43.6c-6.8-2-13.8-2.9-20.8-2.7c-0.8,0-1.5-0.1-2,0.8c-1.2,2.4-3.3,3.8-5.7,5c-3.8,1.9-7.9,2.7-12.1,2.7
		c-2.7,0-5.3-0.3-7.5-2c-1.1-0.8-1.9-0.8-3-0.3c-11.8,5.2-21.7,12.8-29.6,23c-10.9,14.1-16.3,30.1-16.3,47.9c0,2.2,0,2.3-2.2,2.8
		c-1.1,0.3-1.3,0.8-1.3,1.9C172,85.6,171.9,87.9,171.9,90.2z"/>
	<path fill="#FCD7D2" d="M363.1,285.1c-1.9,0.5-3.3,2-5.3,2.5c0-1.2,0.1-2.4-1.4-3c-0.8-0.3-0.7-1.2-0.9-1.9c-0.4-1-0.6-2.2-1-3.2
		c-0.7-2.1-2.2-3.3-4.5-3.1c-0.9,0.1-1.6,0-1.9-1.2c-0.4-1.2-1.7-1-2.4-0.5c-1.5,0.9-3.1,0.7-4.7,0.8l0,0c0-0.4,0-0.8,0-1.2
		c-0.2-1.2,0.3-1.9,1.4-2.4c2.1-0.8,4.2-1.6,5.4-3.6c0.3-0.5,1.1-0.7,1.6-1c0.6-0.4,1.1-0.3,1.7,0.2c2.8,2.7,6.3,2.3,9.7,2.2
		c0.3,0,0.6-0.2,0.8-0.5c0.5-0.8,0.2-3.4-0.5-4.1c-0.3-0.3-0.6-0.5-0.9-0.8c-0.7-0.6-0.5-1.3-0.3-2c0.2-0.6,0.7-0.8,1.3-0.8
		c0.6,0,1.3,0,1.9,0c0,3.2,0,6.4,0,9.6c-2.2,0.1-2.9,0.6-3.3,2.5c-0.2,0.8-0.6,1.2-1,1.8c-1.4,1.6-1,3.6,0.8,4.7
		c0.6,0.4,1.3,0.6,2,0.6c1,0,0.4,1.7,1.5,1.4C363.1,283.2,363.1,284.1,363.1,285.1z"/>
	<path fill="#A48483" d="M363.1,282.2c-1.2,0.2-0.6-1.4-1.5-1.4c-0.7,0-1.4-0.3-2-0.6c-1.8-1.1-2.1-3.1-0.8-4.7c0.5-0.5,0.9-1,1-1.8
		c0.4-2,1.1-2.4,3.3-2.5C363.1,274.9,363.1,278.5,363.1,282.2z"/>
	<path fill="#FCD7D2" d="M201,129.7c-6.9,3.8-13.8,7.6-20.9,11.1c-0.6-0.2-1.1-0.7-1.4-1.3c-1.9-3.4-3.8-6.8-5.6-10.3
		c-3.4-6.3-6.9-12.6-10.9-18.5c-4.1-6.1-8.7-11.8-14.1-16.8c-6.1-5.7-13-10-21.2-12.1c-4.1-1.1-8.3-1.6-12.5-1.2
		c-6.2,0.7-12.2,2-18,4.6c-5.7,2.5-10.7,5.9-15,10.4c-3.5,3.7-6.4,7.9-8.8,12.4c-4.1,7.6-6.7,15.8-9.5,24c-2,5.8-4,11.6-6.9,17.1
		c-1.8,3.3-3.9,6.4-6.6,9c-3.5,3.3-7.6,5.1-12.3,6c-7,1.3-13.7-0.2-20.5-1.9c-3.3-0.8-6.3-2.2-9.4-3.4c-1.8-1.9-3.5-3.8-5.3-5.8
		c-0.1-1-0.7-1.8-1-2.7c-1.4-4.1-1.3-8.4-0.7-12.5c1.7-11,7.3-20.3,13.6-29.1c4.6-6.4,10.1-11.9,15.9-17.2
		c5.6-5.2,11.9-9.6,18.5-13.5c7.2-4.2,14.7-7.7,22.7-10.1c5.8-1.7,11.7-3,17.7-3.7c5.8-0.7,11.7-0.7,17.4-0.3
		c8.3,0.6,16.3,2.5,24.1,5.6c9.3,3.7,18.1,8.4,25.9,14.7c4.6,3.7,9,7.6,13.2,11.8c0.4,0.4,0.9,0.7,1.3,1c0,0.2,0.1,0.3,0.1,0.5
		c0.1,3.4,0.1,3.4,3.4,3c2.8,3.5,6.4,6.4,9.3,10c2.3,2.8,5.1,5.2,7.4,8.1c1.7,2,3.5,3.9,5.2,5.9C197.7,126.3,198.9,128.4,201,129.7z
		"/>
	<path fill="#FCD7D2" d="M146.6,61.4c-2.6-1.1-4.8-2.8-7.2-4.2c-6.3-3.6-12.7-6.6-19.8-8.1c-1.6-0.3-3.3-0.6-4.9-0.7
		c-6.2-0.2-12.4-0.6-18.4-2.1c-3.8-0.9-7.6-0.6-11.3-0.2c-4.5,0.5-8.9,1.5-13.4,2.2c-5.4,0.9-10.8,2.1-16.2,2.8
		c-4.2,0.5-8.4,1.2-12.6,1.1c-2.5,0-4.9-0.4-7.3-1c-4.1-1.1-6.1-4.7-5-8.9c1-4.2,2.7-7.9,5.9-11c2.2-2.2,4.9-3.5,7.8-4.4
		c3.4-1,7-1.5,10.6-1.6c10.1-0.4,19.8,1.5,29.4,4.1c9,2.4,17.8,5.7,26.3,9.5c9.8,4.4,19.4,9.4,28.2,15.6c2.4,1.7,4.7,3.5,7.1,5.3
		C146.2,60.2,146.6,60.7,146.6,61.4L146.6,61.4z"/>
	<path fill="#FCD7D2" d="M146.6,61.4c0.2,0.1,0.4,0.1,0.6,0.2C146.9,62.1,146.8,61.6,146.6,61.4L146.6,61.4z"/>
	<path fill="#A48483" d="M259.8,252.5c-1.3-1.2-2.1-2.7-2.9-4.2c0.6-0.1,1.1,0.1,1.6,0.4c0.8,0.5,1.4,0.3,2.2-0.1
		c2.4-1.4,2.4-1.3,1.6-4.1c-0.5-1.7-0.2-2.1,1.6-2.2c0.9-0.1,1.7,0.4,2.8,0.4c-0.6-1.9-1.1-3.6-1.1-5.5c0-0.8-0.6-1-1.3-1.2
		c-1.3-0.4-2.5-1-3-2.4c-0.4-1.3-0.2-1.8,1.2-1.9c2.8-0.1,5.6,0,8.5,0c-0.6,1-0.5,1.9-0.2,2.9c0.1-0.6,0.3-1.2,0.4-1.8
		c0.7-0.2,1.2,0.3,1.7,0.6c0.5,0.3,0.9,0.8,1.4,1c2.6,0.7,2.7,2.8,2.8,4.8c-0.1,0.1-0.1,0.2-0.2,0.3c0.1-0.1,0.2-0.1,0.3-0.2
		c1.7-0.5,3.5-1.2,5.4-1c1,0.1,1.9,0.4,2.5,1.2c0.3,0.4,0.7,0.9,0.4,1.5c-0.3,0.6-0.9,0.7-1.4,0.6c-1.1-0.2-2.2-0.4-3.3-0.6
		c-1.9-0.4-1.9-0.4-3.1,1.2c-0.7,1-1.3,2.2-2.2,3.1c-0.7-0.7-0.5-1.6-0.9-2.5c-1.3,0.5-2.6,1-4.1,1c0.3,1.2,1.2,1.8,1.6,2.8
		c0.4,1.2-0.4,2.7,0.1,3.4c0.6,0.8,1.9,1.3,2.4,2.5c0.4,1,0.9,2,1.3,3.1c0.4,1.2,1.2,1.3,2.3,1.2c1.2-0.1,1-1.1,1.1-1.8
		c0.1-0.7,0.1-1.4,0.3-2.2c0.9,1.2,1.4,2.5,1.8,4c-0.9,0.4-2.3,0.1-2.5,1.7c-0.1,0.7-1,0.5-1.3,0c-0.9-1.1-2-1.4-3.3-1.5
		c-1.1-0.1-2.2-0.6-3-1.4c-0.7-0.6-1.3-0.8-2.1-0.2c-0.8,0.6-0.3,1.1,0,1.6c0.5,1,0.3,2,0.3,3.1c0,0.8,0.2,1.3,1.1,1.5
		c2.9,0.8,3,1,2.3,4.2c0,0,0,0,0,0c-0.9,0.5-1.9,0.9-2.9,1c-1.9-2.4-3.7-4.8-5.3-7.5c0.7-0.6,1.3-1.4,2.2-1.8
		c0.9-0.4,0.9-1.2,0.1-1.8c-0.9-0.7-1.6-1.4-2.3-2.4C263.9,252.3,261.3,251.9,259.8,252.5z M267.3,243l-0.1,0.1l0.2,0L267.3,243z"/>
	<path fill="#A48483" d="M342,265.4c-1.7,0-3.1-0.5-3.9-2.2c-0.3-0.6-0.7-0.8-1.3-0.6c-2.5,1-4.9,0.5-7.3-0.6
		c-1.8-0.8-3.5-1.9-5.6-2c-1,0-1.3-0.9-0.7-2.2c0.4-0.9,0.5-1.6,0.1-2.5c-0.2-0.3-0.5-0.6-0.7-0.4c-1.7,1.4-3.7,0.5-5.5,0.8l0,0
		c0.1-0.2,0.1-0.5,0.2-0.7c0.6-1.1,0-2.5,0.8-3.4c0.7-0.8,1.8-1.1,2.8-1.6c0.9-0.5,0.6-1.4,0.5-2.1c-0.2-1.1-0.6-2.1-1-3.2
		c-0.3-0.8,0-1.2,0.7-1.5c0.7-0.3,1.3-0.3,2.1-0.1c1.9,0.5,3.1,1.8,4.3,3.2c0.8,1,1.1,2.3,2.2,3.1c0.4,0.2,0.5,0.7,0.3,1.1
		c-0.5,1-0.3,2.1-0.7,3c-0.6,1.3-0.8,2.5,0.1,3.8c0.6,0.9-0.2,1.6-0.6,2.5c1,0.6,1.9,1.1,3,1.7c0.6-1,0.2-2,0.2-2.8
		c0.1-1.1,0.6-1.6,1.7-1.4c2,0.4,4.1,0.7,5,3c0.1,0.2,0.2,0.5,0.4,0.6C341.8,262.5,341.8,262.5,342,265.4
		C341.9,265.4,342,265.4,342,265.4z M333.8,259.2c0,0.1,0,0.1,0.1,0.2c0,0,0.1,0,0.1,0C334,259.2,334,259.2,333.8,259.2
		c0.1-0.5,0-0.8-0.5-1c0-0.1,0-0.1-0.1-0.2c0,0-0.1,0-0.1,0c0,0.2,0,0.2,0.2,0.2C333.2,258.7,333.3,259,333.8,259.2z"/>
	<path fill="#A48483" d="M276.2,275.5c-1.7-1.9-3.4-3.9-4.4-6.3c0-0.7,0.3-1.2,0.6-1.8c0.3-0.5,0.7-0.9,0.4-1.5c0,0,0,0,0,0
		c0.9,0.4,1.5-0.4,2.1-0.8c1.2-0.7,2.4-1.3,3.8-1.2c1.9,0,3,1,3.2,2.9c0.1,0.6,0,1.1,0,1.7c0,0.6,0.5,0.8,1,0.8c0.6,0,1.2,0,1.3-0.7
		c0-0.1,0-0.2,0-0.2c0.2-0.9-0.3-2.1,0.7-2.6c0.8-0.5,1.9-0.1,2.8-0.2c2.2,0,4.3,0,6.5,0c-0.2,0.5-0.4,0.8-0.4,1.2
		c-0.4,2.6-1.5,3.5-4.1,3.6c-1,0.1-2-0.7-3-0.2c0.1,1.1,1,0.9,1.6,1.1c1.4,0.4,1.9,1,1.9,2.2c0,1.3-0.8,2.3-2.1,2.6
		c-1.2,0.3-2.6-0.3-3.3-1.4c-0.4-0.6-0.6-1.3-1-2.1c-1.4,1.2-3.3,1.4-4.7,2.7C278.6,275.8,277.3,275.5,276.2,275.5z"/>
	<path fill="#A48483" d="M242.2,227.9c-1-1.1-1.8-2.3-2.5-3.6c0.2-4,2.3-6.7,5.7-8.5c2.4-1.2,4.7-1.1,6.7,0.7c3.3,3,5,6.9,6.1,11.5
		c-2.1-0.9-3.3-2.4-4.9-3.5c-0.5-0.4-1-0.8-1.5-1.2c-0.8-0.7-1.3-0.5-1.8,0.4C248.3,226.6,245.6,228,242.2,227.9z"/>
	<path fill="#A48483" d="M339.7,234.6c0,1.9-0.4,3.6-1.5,5.2c-0.5,0.7-1,1.2-1.9,1.2c-1-0.1-1.4-0.9-1.4-1.7c0-2.7-1.8-4.1-3.7-5.4
		c-0.3-0.2-0.5-0.4-0.8-0.6c-2.3-1.8-2.3-2.2-0.3-4.2c1.4-1.4,3-2.4,5.1-1.8c2.4,0.7,3.7,2.4,4.3,4.7
		C339.7,232.8,339.6,233.7,339.7,234.6z"/>
	<path fill="#A48483" d="M310.1,246.1c-0.7-0.1-1.1,0.7-1.8,0.5c-0.2-0.1-0.2-0.2,0-0.4c0.7-0.6,1.3-1.1,2-1.7
		c1.2-0.9,1.3-1.3,0.3-2.5c-0.6-0.7-1.1-1.4-1.2-2.3c-0.2-1.2,0.2-1.6,1.3-1.7c0.6,0,1.1,0,1.7,0c3,0.1,5,2.2,4.9,5.5
		c0,1.5-0.3,3-1.2,4.3c-1.6,2.3-4.3,2.1-5.5-0.4C310.5,247.1,310.3,246.6,310.1,246.1z"/>
	<path fill="#A48483" d="M253.6,243.4c-0.4-0.2-0.7-0.5-0.9-1c1.4,0.2,2-0.6,2.4-1.8c0.9-2.7,1.1-5.5,1.4-8.2
		c0.1-0.6,0.1-1.3,0.3-1.9c1.2,5.3,2.4,10.6,3.6,16.2c-2.1-0.4-3.1-1.9-4.6-2.8C255.1,243.4,254.5,242.6,253.6,243.4z"/>
	<path fill="#A48483" d="M350.7,210.1c1.4,0,2.8-0.3,3.5,1.1c0.7,1.5,0.2,2.8-0.6,4.1c-0.2,0.3-0.5,0.6-0.8,0.9
		c-0.4,0.3-1,0.4-1.1-0.2c-0.2-1.7-1.4-1.4-2.5-1.4c-1.8-0.1-2.2-0.3-2.4-1.7c-0.3-1.7,0.1-2.3,1.9-2.6
		C349.3,210.2,350.1,210.2,350.7,210.1z"/>
	<path fill="#A48483" d="M268.4,216.9c-1.9,0-2.4-0.7-1.9-2.5c0.3-1.2,0.6-2.5,1.5-3.4c1-1,1.8-1,2.9-0.1c1.2,1.1,1.7,2.7,1.2,3.8
		C271.6,215.9,269.9,216.9,268.4,216.9z M268.2,214.9c0.1-0.2,0-0.3-0.2-0.3c-0.3-0.1-0.6,0-0.8,0.4c0,0.1,0.1,0.4,0.1,0.4
		C267.8,215.4,268,215.2,268.2,214.9z"/>
	<path fill="#A48483" d="M230.9,178.2c-1.4,0.7-2.6,1.4-4.1,0.9c-1.4-0.5-2.1-1.5-1.9-2.6c0.2-1,1.2-1.7,2.6-1.5
		c0.9,0.1,2.1-0.1,2,1.6C229.4,177.1,230.7,177.2,230.9,178.2z"/>
	<path fill="#A48483" d="M231.1,189.6c0.1,1.2,0.5,1.4,1.4,1.4c1.4,0.1,1.6,0.5,1.1,1.9c-0.6,1.7-1.6,2.1-3.2,1.3
		c-0.8,0.9-0.6,2.2-1.5,3.1C227.9,194.4,230,192.4,231.1,189.6z"/>
	<path fill="#A48483" d="M303.1,259.5c0.6-1.8,1.5-3,3.1-3.5c0.7-0.2,1.5-0.3,1.9,0.4c0.4,0.7,0.1,1.4-0.4,2
		C306.6,260,305,259.8,303.1,259.5z"/>
	<path fill="#A48483" d="M318.1,263.6c-0.1,0.6-0.4,0.9-0.9,1.1c-1.1,0.6-2.8-0.5-3.5,1.3c-0.2-0.1-0.4-0.2-0.6-0.3
		c-0.2-0.2-0.5-0.7-0.3-0.8c1.3-0.8,2.3-2.4,4.1-2.2C317.6,262.7,318.1,262.9,318.1,263.6z"/>
	<path fill="#A48483" d="M264.5,197.7c-0.8,0-1.4-0.5-1.6-1.3c-0.1-0.8,0.4-1.3,1.2-1.4c0.2,0,0.4-0.1,0.5,0c0.6,0.5,1.6-1.5,2,0.3
		C266.8,196.6,265.8,197.7,264.5,197.7z"/>
	<path fill="#A48483" d="M311.7,264c-1.5,0.2-1.8-0.9-2.1-2.1C310.7,262.2,311.2,263.1,311.7,264L311.7,264z"/>
	<path fill="#A48483" d="M317,255.8c-0.1,0.1-0.1,0.2-0.2,0.3C316.5,255.8,316.8,255.9,317,255.8C317,255.8,317,255.8,317,255.8z"/>
	<path fill="#A48483" d="M311.7,264c0.1,0,0.2,0.1,0.2,0.1C311.8,264.2,311.8,264.2,311.7,264C311.7,264,311.7,264,311.7,264z"/>
	<path fill="#FCD7D2" d="M322.8,274.6c0-0.4,0-0.8-0.1-1.2c-0.1-1.8-0.1-1.9,1.7-2.1c0.9-0.1,1.4-0.6,1.8-1.4
		c0.2-0.5,0.1-1.1,0.9-1.4c0.8,0.7,0.2,1.6,0.3,2.4c0.3,2.2,1.7,3,3.7,2.3c1.3-0.5,1.2-1.4,1.1-2.5c0-0.6-0.8-1.5,0.3-1.8
		c1.1-0.3,2.3-1.5,3.5-0.3c0.6,0.6,1.9,0.6,1.7,1.4c-0.3,1.7,0.8,3.3,0,4.9c-0.2,0.4-0.4,0.7-0.5,1.1c-0.1,0.4,0,0.9,0.5,0.9
		c1.1,0,1.8,0.4,2.3,1.3c0.3,0.4,0.7,0.1,1-0.2c0.7-0.5,1.3-1.2,2.4-1.3c0.3,1,0.2,2.3,1.4,3c0.3,0.2,0.3,0.6,0.2,0.9
		c-0.5,1.6-0.3,3.1-0.2,4.7c0,1-2.1,3-3.1,2.9c-0.6-0.1-0.7-0.6-0.6-1.1c0.5-3.4-1.4-5.6-3.7-7.6c-0.7-0.6-1.3-1.1-1.2-2.1
		c0-0.2,0-0.5,0-0.7c-0.3-2.1-0.7-2.4-2.5-1.3c-1.3,0.8-2.4,0.7-3.5-0.1c-0.6-0.4-1.2-0.8-1.8-1.1c-1.3-0.7-2.6-0.7-3.9-0.1
		C324,274.3,323.5,274.8,322.8,274.6z"/>
	<path fill="#FCD7D2" d="M334.4,300c-2.3,1.5-4.6,3-7.3,3.8c0-1.3,0.6-3-0.1-3.8c-0.7-0.9-1.7-1.8-2.8-2.4c-0.1-0.1-0.3-0.3-0.3-0.3
		c-0.3,0.2-0.1,0.3,0.1,0.5c0,0.5,0.2,1.2-0.6,1.2c-0.8,0.1-1.4-0.3-2-0.7c-0.8-0.5-0.3-1.1-0.2-1.7c0.3-2.7,0.3-2.7,2.8-2.7
		c2.1,0,2.1,0,1.7,2c-0.1,0.5-0.1,0.9-0.2,1.5c2.1-0.4,1.8-2.4,3.1-3.9c-0.1,2.3,1.2,4.1-0.7,5.9C330.3,300,332.5,298.8,334.4,300z"
		/>
	<path fill="#FCD7D2" d="M302.1,291.8c-1.3-1-2.5-1.8-4.3-1c-1.1,0.5-2.9-0.5-2.8-1.2c0.2-1.1,1.1-1.7,2.2-1.9
		C300.2,286.9,302.2,288.6,302.1,291.8L302.1,291.8z"/>
	<path fill="#FCD7D2" d="M324.3,305.3c-1.6,1.3-3.4,2.3-5.4,2.8c-0.2-1.7-0.2-1.7-1.8-3.1c1.8-0.3,3.8,0.1,4.7-2.2
		C322.7,303.8,323.3,304.7,324.3,305.3z"/>
	<path fill="#FCD7D2" d="M306.3,299c-2,1.5-4,1.2-6.1,0.8c0.3-2.2,0.4-2.3,2.3-2.2C303.9,297.7,305.3,297.6,306.3,299z"/>
	<path fill="#FCD7D2" d="M306.3,294.6c-0.2,1-0.9,1.1-1.6,1.3c-1,0.4-2.1,0.6-3.2,0.9c-0.4,0.1-0.8,0.3-1.1-0.1
		c-0.2-0.3-0.3-0.8-0.1-1.1c0.4-0.8,1.1-1.6,1.9-1.6C303.6,294.1,305,293.8,306.3,294.6z"/>
	<path fill="#FCD7D2" d="M289.1,293.8c-1.4-1.6-2.8-3.2-3.6-5.3c1-0.2,2.1-0.5,2.6,0.9c0.3,0.9,1.6,1,2.3,1.7
		C290.1,292,289.6,292.9,289.1,293.8z"/>
	<path fill="#FCD7D2" d="M309.8,313c-1.4,0.8-2.7,1.6-4.1,2.5c-0.8,0.5-1.3,0.4-1.6-0.6c0.6-0.4,1.2-0.8,1.7-1.3
		C307.1,312.6,308.3,312.2,309.8,313z"/>
	<path fill="#FCD7D2" d="M311,299.1c0.4,0,0.6,0,0.9,0c0.8,0.2,1.6,1.5,1.3,2.2c-0.4,0.9-1.2,0.4-1.8,0.2c-0.3-0.1-0.6-0.2-0.8-0.4
		c-0.5-0.4-1.1-0.8-1-1.5C309.7,298.7,310.6,299.3,311,299.1z"/>
	<path fill="#FCD7D2" d="M352.5,288.4c-1-0.2-1.9,0.9-2.9,0.1c-0.3-0.2-0.5-0.4-0.3-0.7c0.5-0.7,1.2-1,2-1.1c0.7-0.1,0.8,0.7,1,1.1
		C352.4,288,352.4,288.2,352.5,288.4C352.5,288.5,352.5,288.4,352.5,288.4z"/>
	<path fill="#FCD7D2" d="M308.7,288.5c0.8,0,1.1,0.3,1,0.9c-0.1,0.6-0.1,1.2-0.9,1.1c-0.6-0.1-0.9-0.7-0.9-1.2
		C307.9,288.7,308.4,288.6,308.7,288.5z"/>
	<path fill="#FCD7D2" d="M311,284.3c-0.4-0.8-0.5-1.5-0.6-2.2c-0.1-0.4,0-0.9,0.5-0.8c0.4,0,0.7,0.4,0.6,0.8
		C311.5,282.9,311.3,283.5,311,284.3z"/>
	<path fill="#FCD7D2" d="M311.4,293.6c-1,0.1-1.8,0.1-2.5,0.1c-0.4,0-0.8,0-0.8-0.5c0-0.1,0.1-0.3,0.2-0.4c0.3-0.3,0.5-0.2,0.8,0
		C309.6,293.5,310.5,293.2,311.4,293.6z"/>
	<path fill="#FCD7D2" d="M337,298.6c-0.6,0.7-1.4,0.9-2.2,1.3C334.9,298,334.9,298,337,298.6z"/>
	<path fill="#FCD7D2" d="M317.4,301.1c0.7-0.7,1.1-1.3,1.9-0.8c0.3,0.2,0.3,0.8,0,1.1C318.6,302.1,318.2,301.3,317.4,301.1z"/>
	<path fill="#FCD7D2" d="M341,275.5c0,0.8-0.4,1.1-1.2,0.9c-0.4-0.1-0.7-0.5-0.6-0.9c0.1-0.6,0.6-0.3,0.9-0.2
		C340.4,275.4,340.7,275.4,341,275.5C341,275.5,341,275.5,341,275.5z"/>
	<path fill="#FCD7D2" d="M354.3,289.4c-0.3,0.5-0.8,0.5-1.3,0.6c-0.2-0.5-0.3-1-0.5-1.6c0,0,0,0,0,0
		C353.2,288.6,353.7,289.1,354.3,289.4z"/>
	<path fill="#FCD7D2" d="M302.1,291.8c0.2,0,0.4,0.2,0.4,0.4c0,0.1-0.1,0.1-0.2,0.2C302.2,292.2,302.2,292,302.1,291.8
		C302.1,291.8,302.1,291.8,302.1,291.8z"/>
	<path fill="#FCD7D2" d="M259.8,252.5c1.5-0.6,4.1-0.2,4.8,0.9c0.6,0.9,1.3,1.7,2.3,2.4c0.8,0.6,0.8,1.4-0.1,1.8
		c-0.9,0.4-1.5,1.1-2.2,1.8C262.9,257.2,261.2,255,259.8,252.5z"/>
	<path fill="#FCD7D2" d="M272.8,265.9c0.3,0.6-0.1,1.1-0.4,1.5c-0.4,0.5-0.7,1.1-0.6,1.8c-1-0.5-1.3-1.5-1.9-2.3
		C271,266.8,271.9,266.4,272.8,265.9z"/>
	<path fill="#FCD7D2" d="M327.6,158c-0.5-0.3-0.5-0.8-0.5-1.3c-0.3-7.3-2-14.4-3.5-21.6c-0.7-3.5-1.5-7-2.2-10.5
		c-0.3-1.6-0.5-3.4,1-4.4c1.4-0.9,2.9,0.1,4.2,0.8c4.4,2.3,6.4,6,7.3,10.8c0.6,3.6,0,7-0.6,10.4c-0.9,4.9-2.5,9.5-4.5,14.1
		c-0.2,0.5-0.5,1-0.8,1.5C327.9,157.9,327.7,158,327.6,158z"/>
	<polygon fill="#FCD7D2" points="267.3,243 267.4,243.1 267.2,243.1 	"/>
	<path fill="#FCD7D2" d="M277.2,239.6c-0.1,0.1-0.2,0.1-0.3,0.2c0.1-0.1,0.1-0.2,0.2-0.3C277.1,239.4,277.2,239.6,277.2,239.6z"/>
	<path fill="#FCD7D2" d="M333.3,258.2c0.5,0.1,0.6,0.5,0.5,1l0,0C333.3,259,333.2,258.7,333.3,258.2L333.3,258.2z"/>
	<path fill="#FCD7D2" d="M333.3,258.2c-0.2,0-0.3-0.1-0.2-0.2c0,0,0.1,0,0.1,0C333.3,258.1,333.3,258.2,333.3,258.2
		C333.3,258.2,333.3,258.2,333.3,258.2z"/>
	<path fill="#FCD7D2" d="M333.8,259.2c0.2,0,0.3,0,0.2,0.2c0,0-0.1,0-0.1,0C333.8,259.3,333.8,259.2,333.8,259.2
		C333.8,259.2,333.8,259.2,333.8,259.2z"/>
	<path fill="#FCD7D2" d="M268.2,214.9c-0.2,0.3-0.4,0.5-0.8,0.4c-0.1,0-0.2-0.3-0.1-0.4c0.1-0.3,0.4-0.4,0.8-0.4
		C268.3,214.6,268.3,214.8,268.2,214.9z"/>
	<path fill="#A48483" d="M324.1,297.7c-0.2-0.1-0.4-0.3-0.1-0.5c0,0,0.2,0.2,0.3,0.3C324.2,297.6,324.1,297.6,324.1,297.7z"/>
</g>
</svg>
